<?xml version="1.0" encoding="UTF-8"?>
<svg width="596px" height="629px" viewBox="0 0 596 629" version="1.1" xmlns="http://www.w3.org/2000/svg" xmlns:xlink="http://www.w3.org/1999/xlink">
    <!-- Generator: Sketch 46.2 (44496) - http://www.bohemiancoding.com/sketch -->
    <title>Group 5</title>
    <desc>Created with Sketch.</desc>
    <defs></defs>
    <g id="Page-1" stroke="none" stroke-width="1" fill="none" fill-rule="evenodd">
        <g id="Group-5">
            <rect id="Rectangle" fill="#FFFFFF" x="0" y="0" width="596" height="629"></rect>
            <g id="Group-4" transform="translate(102.000000, 105.000000)" fill="#000000">
                <path d="M123.717312,310 L154,253.217911 L66.4207337,0 L8.52651283e-14,0 C7.37322427,1.60770488 12.3955014,3.3376346 15.0668313,5.18978914 C17.7381613,7.04194368 53.9549881,108.645347 123.717312,310 Z" id="Shape" fill-rule="nonzero"></path>
                <polygon id="Shape" fill-rule="nonzero" points="392 418 392 366 0 366 0 418"></polygon>
                <path d="M184,310 L230.823001,310 C226.687848,186.785998 227.929214,93.7359522 234.547099,30.8498631 C237.075304,6.8257325 235.036701,11.3218697 239.944285,8.63144574 C244.262034,6.26437968 250.280605,3.38723109 258,4.74260303e-13 L184,0 L184,310 Z" id="Shape" fill-rule="nonzero"></path>
                <path d="M21.9404543,280.540358 C16.2340905,297.85199 8.9206057,307.671871 0,310 L61,310 C51.2122373,301.387143 44.2578498,291.567263 40.1368376,280.540358 C36.0158255,269.513453 32.8035462,248.666667 30.5,218 C30.5,242.381939 27.6468181,263.228725 21.9404543,280.540358 Z" id="Shape" fill-rule="nonzero"></path>
                <path d="M345.803787,252.19901 C333.528547,240.055881 330.895009,240.603775 318.716007,233.091369 C308.356856,226.722156 300.097533,221.251165 293.938038,216.678396 C287.778543,212.105627 282.458979,206.797949 277.979346,200.755362 C273.639702,194.549462 271.46988,187.853622 271.46988,180.667842 C271.46988,172.338871 274.479633,163.51996 280.499139,154.211109 C286.518646,144.738945 294.008032,136.818257 302.967298,130.449043 C308.940142,126.202901 317.12947,123.05322 327.535284,121 L327.535284,143.941328 L333.362162,145.004692 L333.362162,121 C347.182776,122.746524 355.949606,124.018103 359.662651,124.814739 C371.701664,127.42775 380.520941,130.367387 386.120482,133.63365 L386.120482,187.526995 L373.311532,187.526995 C367.292025,173.972003 360.292599,163.356647 352.313253,155.680928 C345.3181,149.067968 340.669037,145.920304 333.362162,145.004692 C333.234475,144.988691 331.292182,144.634237 327.535284,143.941328 C320.535858,145.289639 315.916236,147.161424 313.67642,149.556684 C310.176707,153.149574 308.42685,157.559029 308.42685,162.78505 C308.42685,169.317577 311.436604,175.278508 317.45611,180.667842 C323.615605,185.893864 333.064831,192.508047 345.803787,200.510392 C355.742972,206.389666 363.792312,211.615688 369.951807,216.188456 C375.971314,220.597912 381.150889,225.742277 385.490534,231.621551 C389.830178,237.337512 392,243.788382 392,250.974161 C392,259.303133 388.780264,268.122044 382.340792,277.430894 C376.041308,286.739745 368.341939,294.578777 359.242685,300.947991 C356.865,300.947991 346.26839,308.681841 332.094141,309.949404 C331.339766,310.016865 329.820147,310.016865 327.535284,309.949404 C314.805573,308.831227 305.286353,307.627201 298.977625,306.337325 C285.258749,303.724314 275.599541,300.866334 270,297.763384 L270,243.625069 L282.598967,243.625069 C289.283949,250.111939 290.755115,265.107686 297.440097,271.594556 C302.969291,276.95989 313.00102,282.1716 327.535284,287.229684 L327.325301,309.949404 L333.362162,309.949404 C333.423631,297.401638 333.721155,289.828398 334.254733,287.229684 C341.666313,285.364757 345.313827,285.43324 348.953528,281.84035 C352.733219,278.084147 354.623064,273.674692 354.623064,268.611983 C354.623064,262.732709 351.482076,257.816188 345.803787,252.19901 Z" id="Path"></path>
            </g>
        </g>
    </g>
</svg>
